<mxfile host="app.diagrams.net" modified="2023-09-24T22:00:48.840Z" agent="Mozilla/5.0 (Windows NT 10.0; Win64; x64) AppleWebKit/537.36 (KHTML, like Gecko) Chrome/117.0.0.0 Safari/537.36" etag="MfFSc5ixJFHw-U_T_9xa" version="21.8.2" type="device">
  <diagram id="7q6WzZqFf9v9yzIv_zda" name="Use case">
    <mxGraphModel dx="1196" dy="613" grid="1" gridSize="10" guides="1" tooltips="1" connect="1" arrows="1" fold="1" page="1" pageScale="1" pageWidth="850" pageHeight="1100" background="#ffffff" math="0" shadow="0">
      <root>
        <mxCell id="0" />
        <mxCell id="1" parent="0" />
        <mxCell id="SSoZlEEdxV4zL4xD8buy-2" value="Banker" style="shape=umlActor;verticalLabelPosition=bottom;verticalAlign=top;html=1;outlineConnect=0;fillColor=#FFFFFF;" parent="1" vertex="1">
          <mxGeometry x="20" y="60" width="30" height="60" as="geometry" />
        </mxCell>
        <mxCell id="SSoZlEEdxV4zL4xD8buy-3" value="" style="endArrow=none;html=1;entryX=0;entryY=0.5;entryDx=0;entryDy=0;" parent="1" source="SSoZlEEdxV4zL4xD8buy-2" target="SSoZlEEdxV4zL4xD8buy-4" edge="1">
          <mxGeometry width="50" height="50" relative="1" as="geometry">
            <mxPoint x="40" y="112" as="sourcePoint" />
            <mxPoint x="130" y="112" as="targetPoint" />
          </mxGeometry>
        </mxCell>
        <mxCell id="SSoZlEEdxV4zL4xD8buy-4" value="Access client record" style="ellipse;whiteSpace=wrap;html=1;fillColor=#FFFFFF;" parent="1" vertex="1">
          <mxGeometry x="110" y="50" width="120" height="80" as="geometry" />
        </mxCell>
        <mxCell id="EGgrtP7-PYZIOP3BgwKZ-12" value="darknet data harvesters" style="shape=umlActor;verticalLabelPosition=bottom;verticalAlign=top;html=1;outlineConnect=0;fillColor=#1A1A1A;" parent="1" vertex="1">
          <mxGeometry x="1050" y="350" width="30" height="60" as="geometry" />
        </mxCell>
        <mxCell id="EGgrtP7-PYZIOP3BgwKZ-17" value="Enter data in entry box" style="ellipse;whiteSpace=wrap;html=1;fillColor=#FFFFFF;" parent="1" vertex="1">
          <mxGeometry x="320" y="50" width="120" height="80" as="geometry" />
        </mxCell>
        <mxCell id="EGgrtP7-PYZIOP3BgwKZ-18" value="&amp;lt;&amp;lt;includes&amp;gt;&amp;gt;" style="html=1;verticalAlign=bottom;endArrow=open;dashed=1;endSize=8;curved=0;rounded=0;entryX=0;entryY=0.5;entryDx=0;entryDy=0;fontColor=#FF9933;exitX=1;exitY=0.5;exitDx=0;exitDy=0;" parent="1" source="SSoZlEEdxV4zL4xD8buy-4" target="EGgrtP7-PYZIOP3BgwKZ-17" edge="1">
          <mxGeometry relative="1" as="geometry">
            <mxPoint x="240" y="90" as="sourcePoint" />
            <mxPoint x="590" y="330" as="targetPoint" />
          </mxGeometry>
        </mxCell>
        <mxCell id="EGgrtP7-PYZIOP3BgwKZ-21" value="Client side input validation &lt;br&gt;&amp;nbsp;&lt;font color=&quot;#007fff&quot;&gt;javascript/html5&lt;/font&gt;" style="ellipse;whiteSpace=wrap;html=1;fillColor=#FFFFFF;" parent="1" vertex="1">
          <mxGeometry x="325" y="181" width="120" height="80" as="geometry" />
        </mxCell>
        <mxCell id="EGgrtP7-PYZIOP3BgwKZ-22" value="&amp;lt;&amp;lt;includes&amp;gt;&amp;gt;" style="html=1;verticalAlign=bottom;endArrow=open;dashed=1;endSize=8;curved=0;rounded=0;exitX=0.5;exitY=1;exitDx=0;exitDy=0;entryX=0.5;entryY=0;entryDx=0;entryDy=0;fontColor=#FF9933;fontStyle=0" parent="1" target="EGgrtP7-PYZIOP3BgwKZ-21" edge="1">
          <mxGeometry relative="1" as="geometry">
            <mxPoint x="385" y="130" as="sourcePoint" />
            <mxPoint x="335" y="100" as="targetPoint" />
          </mxGeometry>
        </mxCell>
        <mxCell id="EGgrtP7-PYZIOP3BgwKZ-23" value="XSS Attack&lt;br&gt;&lt;font color=&quot;#007fff&quot; style=&quot;font-size: 10px;&quot;&gt;Malicious js/html codes&lt;/font&gt;" style="ellipse;whiteSpace=wrap;html=1;fillColor=#1A1A1A;fontColor=#FFFFFF;" parent="1" vertex="1">
          <mxGeometry x="530" y="181" width="120" height="80" as="geometry" />
        </mxCell>
        <mxCell id="EGgrtP7-PYZIOP3BgwKZ-24" value="prevents" style="html=1;verticalAlign=bottom;endArrow=open;dashed=1;endSize=8;curved=0;rounded=0;exitX=1;exitY=0.5;exitDx=0;exitDy=0;entryX=0;entryY=0.5;entryDx=0;entryDy=0;fontColor=#00CC66;fontStyle=0" parent="1" source="EGgrtP7-PYZIOP3BgwKZ-21" target="EGgrtP7-PYZIOP3BgwKZ-23" edge="1">
          <mxGeometry relative="1" as="geometry">
            <mxPoint x="395" y="140" as="sourcePoint" />
            <mxPoint x="395" y="210" as="targetPoint" />
          </mxGeometry>
        </mxCell>
        <mxCell id="EGgrtP7-PYZIOP3BgwKZ-25" value="threatens" style="html=1;verticalAlign=bottom;endArrow=open;dashed=1;endSize=8;curved=0;rounded=0;exitX=0.194;exitY=0.148;exitDx=0;exitDy=0;entryX=0.931;entryY=0.773;entryDx=0;entryDy=0;fontColor=#FF0000;fontStyle=0;entryPerimeter=0;exitPerimeter=0;" parent="1" source="EGgrtP7-PYZIOP3BgwKZ-23" target="EGgrtP7-PYZIOP3BgwKZ-17" edge="1">
          <mxGeometry relative="1" as="geometry">
            <mxPoint x="405" y="150" as="sourcePoint" />
            <mxPoint x="433.48" y="115.27999999999997" as="targetPoint" />
          </mxGeometry>
        </mxCell>
        <mxCell id="EGgrtP7-PYZIOP3BgwKZ-30" value="Nextcloud - Database Misuse case" style="text;html=1;align=center;verticalAlign=middle;resizable=0;points=[];autosize=1;strokeColor=none;fillColor=none;fontStyle=1;fontSize=14;" parent="1" vertex="1">
          <mxGeometry x="10" y="20" width="250" height="30" as="geometry" />
        </mxCell>
        <mxCell id="9pojK9ZYNXiW30SJmVLu-3" value="&amp;lt;&amp;lt;includes&amp;gt;&amp;gt;" style="html=1;verticalAlign=bottom;endArrow=open;dashed=1;endSize=8;curved=0;rounded=0;exitX=0.5;exitY=1;exitDx=0;exitDy=0;fontColor=#FF9933;fontStyle=0;entryX=0.5;entryY=0;entryDx=0;entryDy=0;" parent="1" source="EGgrtP7-PYZIOP3BgwKZ-21" target="BHQtuhGBkiGhtb0f2eE0-6" edge="1">
          <mxGeometry relative="1" as="geometry">
            <mxPoint x="385" y="275" as="sourcePoint" />
            <mxPoint x="385" y="330" as="targetPoint" />
            <mxPoint as="offset" />
          </mxGeometry>
        </mxCell>
        <mxCell id="9pojK9ZYNXiW30SJmVLu-5" value="Disable javascript&lt;br&gt;&lt;font color=&quot;#007fff&quot; style=&quot;font-size: 9px;&quot;&gt;Ex: Browser addons&lt;br&gt;&amp;nbsp;settings&lt;/font&gt;" style="ellipse;whiteSpace=wrap;html=1;fillColor=#1A1A1A;fontColor=#FFFFFF;" parent="1" vertex="1">
          <mxGeometry x="530" y="340" width="120" height="80" as="geometry" />
        </mxCell>
        <mxCell id="BHQtuhGBkiGhtb0f2eE0-4" value="" style="endArrow=none;html=1;exitX=1;exitY=0.5;exitDx=0;exitDy=0;" parent="1" source="Y1a-zcBHLSkURZJUUoCX-1" target="EGgrtP7-PYZIOP3BgwKZ-12" edge="1">
          <mxGeometry width="50" height="50" relative="1" as="geometry">
            <mxPoint x="597" y="116" as="sourcePoint" />
            <mxPoint x="750" y="131" as="targetPoint" />
          </mxGeometry>
        </mxCell>
        <mxCell id="xDlN5SmdGR35hfWF58TL-6" value="" style="edgeStyle=orthogonalEdgeStyle;rounded=0;orthogonalLoop=1;jettySize=auto;html=1;" edge="1" parent="1" source="BHQtuhGBkiGhtb0f2eE0-6" target="xDlN5SmdGR35hfWF58TL-4">
          <mxGeometry relative="1" as="geometry" />
        </mxCell>
        <mxCell id="BHQtuhGBkiGhtb0f2eE0-6" value="Server side validation&lt;br&gt;&lt;font style=&quot;font-size: 10px;&quot; color=&quot;#007fff&quot;&gt;Input validation&lt;/font&gt;" style="ellipse;whiteSpace=wrap;html=1;fillColor=#FFFFFF;" parent="1" vertex="1">
          <mxGeometry x="325" y="340" width="120" height="80" as="geometry" />
        </mxCell>
        <mxCell id="BHQtuhGBkiGhtb0f2eE0-7" value="includes" style="html=1;verticalAlign=bottom;endArrow=open;dashed=1;endSize=8;curved=0;rounded=0;exitX=0;exitY=0;exitDx=0;exitDy=0;entryX=0.977;entryY=0.647;entryDx=0;entryDy=0;fontColor=#FF9933;fontStyle=0;entryPerimeter=0;" parent="1" source="Y1a-zcBHLSkURZJUUoCX-1" target="EGgrtP7-PYZIOP3BgwKZ-23" edge="1">
          <mxGeometry relative="1" as="geometry">
            <mxPoint x="395" y="140" as="sourcePoint" />
            <mxPoint x="385" y="0.9999999999998863" as="targetPoint" />
          </mxGeometry>
        </mxCell>
        <mxCell id="BHQtuhGBkiGhtb0f2eE0-10" value="threatens" style="html=1;verticalAlign=bottom;endArrow=open;dashed=1;endSize=8;curved=0;rounded=0;entryX=1;entryY=1;entryDx=0;entryDy=0;fontColor=#FF0000;fontStyle=0;exitX=0.168;exitY=0.131;exitDx=0;exitDy=0;exitPerimeter=0;" parent="1" source="9pojK9ZYNXiW30SJmVLu-5" target="EGgrtP7-PYZIOP3BgwKZ-21" edge="1">
          <mxGeometry x="-0.1006" relative="1" as="geometry">
            <mxPoint x="750" y="300" as="sourcePoint" />
            <mxPoint x="445" y="356" as="targetPoint" />
            <Array as="points">
              <mxPoint x="500" y="350" />
              <mxPoint x="500" y="300" />
              <mxPoint x="500" y="250" />
            </Array>
            <mxPoint as="offset" />
          </mxGeometry>
        </mxCell>
        <mxCell id="Y1a-zcBHLSkURZJUUoCX-1" value="Extract Database Data" style="ellipse;whiteSpace=wrap;html=1;fillColor=#1A1A1A;fontColor=#FFFFFF;" parent="1" vertex="1">
          <mxGeometry x="870" y="340" width="120" height="80" as="geometry" />
        </mxCell>
        <mxCell id="Y1a-zcBHLSkURZJUUoCX-4" value="&amp;lt;&amp;lt;includes&amp;gt;&amp;gt;" style="html=1;verticalAlign=bottom;endArrow=open;dashed=1;endSize=8;curved=0;rounded=0;entryX=0.5;entryY=0;entryDx=0;entryDy=0;fontColor=#FF9933;fontStyle=0;exitX=0.5;exitY=1;exitDx=0;exitDy=0;" parent="1" source="EGgrtP7-PYZIOP3BgwKZ-23" target="9pojK9ZYNXiW30SJmVLu-5" edge="1">
          <mxGeometry relative="1" as="geometry">
            <mxPoint x="590" y="271" as="sourcePoint" />
            <mxPoint x="590" y="321" as="targetPoint" />
          </mxGeometry>
        </mxCell>
        <mxCell id="xDlN5SmdGR35hfWF58TL-1" value="Bypass javascript (Proxy)&lt;br&gt;&lt;font style=&quot;font-size: 9px;&quot; color=&quot;#007fff&quot;&gt;Ex: Burpsuite&lt;/font&gt;" style="ellipse;whiteSpace=wrap;html=1;fillColor=#1A1A1A;fontColor=#FFFFFF;" vertex="1" parent="1">
          <mxGeometry x="690" y="340" width="120" height="80" as="geometry" />
        </mxCell>
        <mxCell id="xDlN5SmdGR35hfWF58TL-2" value="&amp;lt;&amp;lt;includes&amp;gt;&amp;gt;" style="html=1;verticalAlign=bottom;endArrow=open;dashed=1;endSize=8;curved=0;rounded=0;fontColor=#FF9933;fontStyle=0;exitX=1;exitY=1;exitDx=0;exitDy=0;entryX=0.5;entryY=0;entryDx=0;entryDy=0;" edge="1" parent="1" source="EGgrtP7-PYZIOP3BgwKZ-23" target="xDlN5SmdGR35hfWF58TL-1">
          <mxGeometry x="0.1457" relative="1" as="geometry">
            <mxPoint x="590" y="401" as="sourcePoint" />
            <mxPoint x="600" y="471" as="targetPoint" />
            <mxPoint as="offset" />
          </mxGeometry>
        </mxCell>
        <mxCell id="xDlN5SmdGR35hfWF58TL-4" value="Use parametized query" style="ellipse;whiteSpace=wrap;html=1;fillColor=#FFFFFF;" vertex="1" parent="1">
          <mxGeometry x="325" y="480" width="120" height="80" as="geometry" />
        </mxCell>
        <mxCell id="xDlN5SmdGR35hfWF58TL-5" value="&amp;lt;&amp;lt;includes&amp;gt;&amp;gt;" style="html=1;verticalAlign=bottom;endArrow=open;dashed=1;endSize=8;curved=0;rounded=0;entryX=0.5;entryY=0;entryDx=0;entryDy=0;fontColor=#FF9933;fontStyle=0;exitX=0.5;exitY=1;exitDx=0;exitDy=0;" edge="1" parent="1" target="xDlN5SmdGR35hfWF58TL-4" source="BHQtuhGBkiGhtb0f2eE0-6">
          <mxGeometry relative="1" as="geometry">
            <mxPoint x="385" y="560" as="sourcePoint" />
            <mxPoint x="384.5" y="720" as="targetPoint" />
          </mxGeometry>
        </mxCell>
        <mxCell id="xDlN5SmdGR35hfWF58TL-7" value="SQL Injection&lt;br&gt;&lt;font style=&quot;font-size: 10px;&quot; color=&quot;#007fff&quot;&gt;Malicious SQL codes&lt;/font&gt;" style="ellipse;whiteSpace=wrap;html=1;fillColor=#1A1A1A;fontColor=#FFFFFF;" vertex="1" parent="1">
          <mxGeometry x="570" y="480" width="120" height="80" as="geometry" />
        </mxCell>
        <mxCell id="xDlN5SmdGR35hfWF58TL-9" value="" style="endArrow=none;dashed=1;html=1;rounded=0;exitX=0.171;exitY=0.132;exitDx=0;exitDy=0;exitPerimeter=0;" edge="1" parent="1" source="xDlN5SmdGR35hfWF58TL-1">
          <mxGeometry width="50" height="50" relative="1" as="geometry">
            <mxPoint x="707.573593128807" y="352.715728752538" as="sourcePoint" />
            <mxPoint x="500" y="320" as="targetPoint" />
            <Array as="points">
              <mxPoint x="710" y="320" />
            </Array>
          </mxGeometry>
        </mxCell>
        <mxCell id="xDlN5SmdGR35hfWF58TL-10" value="includes" style="html=1;verticalAlign=bottom;endArrow=open;dashed=1;endSize=8;curved=0;rounded=0;exitX=0.045;exitY=0.789;exitDx=0;exitDy=0;entryX=1;entryY=0.5;entryDx=0;entryDy=0;fontColor=#FF9933;fontStyle=0;exitPerimeter=0;" edge="1" parent="1" source="Y1a-zcBHLSkURZJUUoCX-1" target="xDlN5SmdGR35hfWF58TL-7">
          <mxGeometry relative="1" as="geometry">
            <mxPoint x="898" y="362" as="sourcePoint" />
            <mxPoint x="657" y="243" as="targetPoint" />
          </mxGeometry>
        </mxCell>
        <mxCell id="xDlN5SmdGR35hfWF58TL-11" value="threatens" style="html=1;verticalAlign=bottom;endArrow=open;dashed=1;endSize=8;curved=0;rounded=0;exitX=0.011;exitY=0.381;exitDx=0;exitDy=0;entryX=1;entryY=1;entryDx=0;entryDy=0;fontColor=#FF0000;fontStyle=0;exitPerimeter=0;" edge="1" parent="1" source="xDlN5SmdGR35hfWF58TL-7" target="BHQtuhGBkiGhtb0f2eE0-6">
          <mxGeometry relative="1" as="geometry">
            <mxPoint x="563" y="203" as="sourcePoint" />
            <mxPoint x="442" y="122" as="targetPoint" />
          </mxGeometry>
        </mxCell>
        <mxCell id="xDlN5SmdGR35hfWF58TL-12" value="prevents" style="html=1;verticalAlign=bottom;endArrow=open;dashed=1;endSize=8;curved=0;rounded=0;fontColor=#00CC66;fontStyle=0;entryX=0;entryY=0.5;entryDx=0;entryDy=0;exitX=1;exitY=0.5;exitDx=0;exitDy=0;" edge="1" parent="1" source="xDlN5SmdGR35hfWF58TL-4" target="xDlN5SmdGR35hfWF58TL-7">
          <mxGeometry relative="1" as="geometry">
            <mxPoint x="459.9999999999998" y="650" as="sourcePoint" />
            <mxPoint x="555.0000000000027" y="520" as="targetPoint" />
          </mxGeometry>
        </mxCell>
        <mxCell id="xDlN5SmdGR35hfWF58TL-13" value="prevents" style="html=1;verticalAlign=bottom;endArrow=open;dashed=1;endSize=8;curved=0;rounded=0;fontColor=#00CC66;fontStyle=0;entryX=0.5;entryY=1;entryDx=0;entryDy=0;" edge="1" parent="1" target="xDlN5SmdGR35hfWF58TL-1">
          <mxGeometry x="-0.4595" relative="1" as="geometry">
            <mxPoint x="440" y="400" as="sourcePoint" />
            <mxPoint x="540.0000000000027" y="390" as="targetPoint" />
            <Array as="points">
              <mxPoint x="520" y="400" />
              <mxPoint x="520" y="440" />
              <mxPoint x="750" y="440" />
            </Array>
            <mxPoint as="offset" />
          </mxGeometry>
        </mxCell>
        <mxCell id="xDlN5SmdGR35hfWF58TL-16" value="" style="endArrow=none;dashed=1;html=1;rounded=0;entryX=0.5;entryY=1;entryDx=0;entryDy=0;" edge="1" parent="1" target="9pojK9ZYNXiW30SJmVLu-5">
          <mxGeometry width="50" height="50" relative="1" as="geometry">
            <mxPoint x="590" y="440" as="sourcePoint" />
            <mxPoint x="700" y="420" as="targetPoint" />
          </mxGeometry>
        </mxCell>
      </root>
    </mxGraphModel>
  </diagram>
</mxfile>
